<?xml version="1.0" encoding="UTF-8"?>
<svg width="882px" height="445px" viewBox="0 0 882 445" version="1.1" xmlns="http://www.w3.org/2000/svg" xmlns:xlink="http://www.w3.org/1999/xlink">
    <!-- Generator: Sketch 50.2 (55047) - http://www.bohemiancoding.com/sketch -->
    <title>Illustration / Empty</title>
    <desc>Created with Sketch.</desc>
    <defs></defs>
    <g id="SallyApp" stroke="none" stroke-width="1" fill="none" fill-rule="evenodd">
        <g id="Tone-&amp;-Voice" transform="translate(-388.000000, -178.000000)">
            <g id="Illustration-/-Empty" transform="translate(388.000000, 140.000000)">
                <g id="Empty-State-Image" fill="#E0E3ED" fill-rule="nonzero">
                    <path d="M0.0296484672,480.413584 L35.9527438,480.606165 C41.6676666,480.526825 47.9950834,480.353718 54.8843748,480.542693 C58.3279358,480.58092 61.9132309,480.701374 65.6301363,480.692718 C69.3492111,480.708586 73.2013425,480.624918 77.1821915,480.593903 C85.1424434,480.50735 93.6132275,480.413584 102.542478,480.314769 C107.007103,480.26428 111.586707,480.221003 116.27478,480.177726 C120.962854,480.163301 125.759397,480.278705 130.657903,480.329195 L138.08159,480.415748 C140.581461,480.415748 143.105197,480.358046 145.652796,480.336407 C150.750886,480.278705 155.941537,480.192152 161.223303,480.170514 L193.930624,480.509514 C205.157269,480.509514 216.689077,480.610493 228.476874,480.365258 C231.423642,480.336407 234.386319,480.271492 237.364182,480.336407 L246.342606,480.574429 C249.343609,480.660982 252.366307,480.588854 255.403467,480.47345 C258.433396,480.379684 261.485018,480.422961 264.543872,480.430173 C276.78652,480.480663 289.238876,480.531152 301.84309,480.581642 L320.854266,480.574429 C324.036053,480.560003 327.232302,480.574429 330.435783,480.596067 C333.632032,480.632131 336.842744,480.725897 340.060688,480.790812 L349.721749,480.956706 C351.334337,480.978344 352.946924,480.94228 354.566743,480.935068 L359.418968,480.819663 C365.891011,480.610493 372.384748,480.798025 378.892949,480.870153 C385.393917,480.935068 391.91658,481.086536 398.439243,481.093749 L418.021694,480.985557 C424.551588,480.906216 431.081482,480.963919 437.611376,480.956706 L457.157671,480.985557 L476.631652,481.086536 C483.103695,481.144238 489.554045,480.999982 495.989931,480.935068 C508.847242,480.718684 521.603315,480.610493 534.207529,480.502301 L552.987302,480.408535 C556.096775,480.386897 559.191786,480.459024 562.279565,480.480663 C565.360113,480.516727 568.440662,480.560003 571.499516,480.596067 C574.55837,480.660982 577.609992,480.646557 580.639921,480.668195 L589.700782,480.581642 L607.562176,480.386897 L616.355477,480.285918 C619.269705,480.242641 622.162238,480.206577 625.04754,480.257067 C630.803681,480.278705 636.494741,480.466237 642.106256,480.358046 C653.329285,480.278705 664.248599,480.08396 674.813577,480.459024 C685.378555,480.81245 695.581967,480.307556 705.380424,480.610493 C715.171649,480.978344 724.565151,480.177726 733.495848,480.502301 C737.957581,480.545578 742.310844,480.668195 746.541174,480.68262 L758.856135,480.740323 L770.404574,480.617706 L775.878694,480.574429 L781.150336,480.632131 C788.034565,480.689833 794.361982,480.819663 800.081967,480.68262 L815.34008,480.444599 L826.613729,480.39411 L836,480.350833 L836,482.65892 L826.606498,482.644495 L815.325618,482.630069 L800.067504,482.456963 C794.347519,482.341558 788.020102,482.52909 781.135873,482.630069 L775.864231,482.716623 L770.390111,482.680559 L758.834441,482.557941 C750.872742,482.536303 742.404851,482.70941 733.474154,482.896942 C729.00519,482.983495 724.427756,483.012346 719.741852,482.767112 C715.055948,482.52909 710.254342,482.507452 705.358729,482.680559 C695.560273,483.062836 685.356861,482.262218 674.791883,482.601218 C664.226905,482.990708 653.307591,482.70941 642.084562,482.601218 L637.861463,482.550729 C636.444122,482.52909 635.02678,482.572367 633.609439,482.57958 L625.025846,482.666133 C622.147775,482.716623 619.248011,482.687771 616.333783,482.651708 L607.540482,482.565154 L589.671857,482.435324 L580.603764,482.392048 C577.566604,482.435324 574.522213,482.435324 571.456128,482.52909 L562.236177,482.759899 C559.148398,482.795963 556.053387,482.860878 552.943914,482.853665 L534.208252,482.853665 C521.604038,482.774325 508.847966,482.738261 495.990655,482.420899 C483.133344,482.002558 470.171902,482.334346 457.158394,482.493027 C444.147779,482.615644 431.085098,482.752686 418.022417,482.644495 C411.491077,482.565154 404.959736,482.327133 398.432735,482.355984 C396.802792,482.334346 395.171403,482.348771 393.541461,482.384835 L388.65091,482.456963 L378.884994,482.752686 C375.630894,482.868091 372.38041,482.911367 369.137157,482.947431 C367.511553,482.983495 365.890288,482.961857 364.270469,482.925793 C362.65065,482.91858 361.030832,482.817601 359.411013,482.738261 C352.935354,482.312707 346.481389,482.392048 340.052733,482.694984 C336.836236,482.83924 333.628417,482.940218 330.427829,482.983495 C327.225794,483.005133 324.031714,483.012346 320.846312,482.961857 L301.832243,482.78875 L264.533025,482.687771 C261.470556,482.666133 258.422549,482.702197 255.385389,482.57958 C252.348228,482.435324 249.328424,482.334346 246.320912,482.39926 C243.312677,482.428112 240.318905,482.550729 237.339596,482.57958 C234.360286,482.630069 231.39544,482.557941 228.452287,482.521878 C216.665213,482.255005 205.131237,482.255005 193.908207,482.19009 C182.677946,482.211728 171.758633,482.226154 161.200886,482.247792 L145.631825,482.19009 L138.060619,482.197303 C135.558577,482.240579 133.085461,482.276643 130.634039,482.312707 L116.250917,482.500239 C111.565013,482.514665 106.980347,482.456963 102.518615,482.435324 L77.1583281,482.269431 C73.1810947,482.262218 69.326794,482.182877 65.6098886,482.226154 L54.8568957,482.384835 C47.9654349,482.572367 41.6380181,482.428112 35.9252647,482.370409 L0,482.637282 L0,480.329195 L0.0296484672,480.413584 Z M442.338499,273.311785 L421.126105,273.489219 L411.102031,273.559183 L401.077957,273.554855 L391.053882,273.453877 L386.042568,273.403387 L383.535465,273.381749 L381.026192,273.287983 L378.516919,273.20143 L376.007647,273.194217 L370.996332,273.172578 L360.966473,273.136515 L360.019168,273.136515 L360.011937,272.191641 C360.004706,270.273044 360.069788,268.354446 360.098713,266.435848 L360.214414,260.680055 L360.322884,254.924262 C360.366272,253.005665 360.35181,251.087067 360.366272,249.168469 L360.366272,248.577022 L360.95201,248.584235 C362.622448,248.605873 364.292886,248.569809 365.963324,248.562596 L370.974638,248.51932 L380.997267,248.425554 L401.049754,248.223596 L421.095011,248 C424.435887,248.021638 427.776763,248.043277 431.117639,248.115404 L436.128953,248.194745 L441.140267,248.238022 L442.073109,248.245234 L442.08034,249.182895 L442.304512,273.360111 L442.338499,273.311785 Z M440.012902,271.014517 L439.851643,249.130963 L441.174978,250.4509 C437.832655,250.436475 434.491056,250.494177 431.15018,250.414836 L421.126105,250.24173 L401.077233,250.270581 L381.028361,250.306645 L371.004287,250.32107 L365.992973,250.328283 C364.322535,250.335496 362.65065,250.32107 360.980212,250.357134 L362.212432,249.12375 L362.389599,260.635336 C362.419971,262.553934 362.464082,264.472531 362.458297,266.391129 C362.455404,268.309727 362.490838,270.228324 362.446727,272.146922 L360.980212,270.675516 C362.65065,270.704367 364.321089,270.704367 365.991527,270.769282 L371.004287,270.920751 L376.015601,271.065006 C377.686039,271.108283 379.357923,271.194836 381.028361,271.10107 C382.698799,271.000091 384.369237,271.065006 386.039675,271.10107 L391.052436,271.202049 L401.07651,271.36073 C402.746948,271.36073 404.417386,271.353517 406.087824,271.288602 L411.100585,271.144347 C412.771023,271.079432 414.441461,271.093857 416.111899,271.079432 L421.124659,271.050581 L431.148734,270.985666 C434.104903,270.956815 437.058902,270.97124 440.012902,270.978453 L440.012902,271.014517 Z M442.338499,320.696098 L421.126105,320.869205 L411.102031,320.93412 L401.077957,320.926907 L391.053882,320.825928 L386.042568,320.775439 L383.535465,320.746588 L381.026192,320.645609 L378.516919,320.551843 L376.007647,320.537417 L370.996332,320.515779 L360.966473,320.472502 L360.019168,320.46529 L360.011937,319.513204 C360.004706,317.594606 360.069788,315.676008 360.098713,313.750198 L360.214414,307.987192 L360.322884,302.224186 C360.366272,300.305589 360.35181,298.386991 360.366272,296.46118 L360.366272,295.86252 L360.95201,295.869733 C362.622448,295.891371 364.292886,295.855308 365.963324,295.840882 L370.974638,295.790393 L380.997267,295.696627 L401.049754,295.494669 L421.095011,295.271073 C424.435887,295.285498 427.776763,295.31435 431.117639,295.386477 L436.128953,295.465818 L441.140267,295.509094 L442.073109,295.516307 L442.08034,296.453968 L442.304512,320.623971 L442.338499,320.696098 Z M440.012902,318.395224 L439.851643,296.51167 L441.174978,297.831607 C437.832655,297.817182 434.491056,297.874884 431.15018,297.795544 L421.126105,297.622437 L401.077233,297.651288 L381.028361,297.680139 L371.004287,297.694565 L365.992973,297.701777 C364.322535,297.70899 362.65065,297.694565 360.980212,297.730629 L362.212432,296.497244 L362.389599,308.00883 C362.419971,309.927428 362.464082,311.846026 362.458297,313.764623 C362.455404,315.683221 362.490838,317.601819 362.446727,319.520416 L360.980212,318.049011 C362.65065,318.077862 364.321089,318.077862 365.991527,318.142777 L371.004287,318.294245 L376.015601,318.4385 C377.686039,318.481777 379.357923,318.56833 381.028361,318.474564 C382.698799,318.380798 384.369237,318.445713 386.039675,318.474564 L391.052436,318.575543 L401.07651,318.734224 C402.746948,318.734224 404.417386,318.727011 406.087824,318.662096 L411.100585,318.517841 C412.771023,318.452926 414.441461,318.467351 416.111899,318.452926 L421.124659,318.424075 L431.148734,318.366373 C434.104903,318.337522 437.058902,318.351947 440.012902,318.35916 L440.012902,318.395224 Z" id="Shape"></path>
                    <path d="M359.078501,321.750943 L337.930166,321.929772 L327.936363,322 L317.94256,321.995656 L307.948757,321.892848 L302.952577,321.842168 L300.453045,321.816104 L297.95135,321.719811 L295.449655,321.631483 L292.94796,321.620623 L287.951779,321.598903 L277.952208,321.557635 L277.007765,321.554015 L277.000555,320.6034 C276.993346,318.677555 277.058231,316.750262 277.087069,314.823693 L277.202421,309.043986 L277.310563,303.259211 C277.35382,301.333366 277.339401,299.407521 277.35382,297.474436 L277.35382,296.873514 L277.937789,296.880754 C279.603183,296.895234 281.268576,296.866274 282.93397,296.851794 L287.930151,296.801114 L297.922512,296.706994 L317.914443,296.497033 L337.899165,296.272593 C341.229952,296.287073 344.560739,296.316033 347.891526,296.388433 L352.887707,296.468073 L357.883887,296.511513 L358.813912,296.518753 L358.821122,297.459956 L359.044616,321.728499 L359.078501,321.750943 Z M356.759927,319.444997 L356.599155,297.483848 L357.918493,298.812391 C354.586264,298.796463 351.254756,298.854384 347.923969,298.777639 L337.930166,298.603879 L317.941839,298.632839 L297.953512,298.661799 L287.959709,298.676279 L282.963529,298.683519 C281.298135,298.690759 279.6313,298.676279 277.965907,298.712479 L279.194405,297.474436 L279.371037,309.029506 C279.401317,310.955351 279.445295,312.881196 279.439527,314.807041 C279.436644,316.732886 279.47197,318.658731 279.427992,320.584576 L277.965907,319.107612 C279.6313,319.136573 281.296694,319.136573 282.962087,319.201733 L287.959709,319.353773 L292.95589,319.498573 C294.621283,319.542014 296.288119,319.628894 297.953512,319.527534 C299.618906,319.433413 301.284299,319.498573 302.949693,319.527534 L307.947315,319.628894 L317.941118,319.788174 C319.606512,319.795414 321.271905,319.780934 322.937299,319.715774 L327.934921,319.570974 C329.600315,319.505813 331.265708,319.520294 332.931102,319.505813 L337.928724,319.476853 L347.922527,319.418933 C350.869769,319.389973 353.814848,319.411693 356.759927,319.411693 L356.759927,319.444997 Z M441,229.437082 L419.851665,229.614463 L409.857862,229.685415 L399.86406,229.681071 L389.870257,229.578263 L384.874076,229.527583 L382.374544,229.500795 L379.872849,229.404502 L377.371154,229.316174 L374.869459,229.305314 L369.873278,229.283594 L359.873708,229.242326 L358.929264,229.238706 L358.922054,228.290263 C358.914845,226.364418 358.97973,224.438573 359.008568,222.512728 L359.12392,216.735193 L359.232063,210.957658 C359.27532,209.031813 359.260901,207.105968 359.27532,205.180123 L359.27532,204.579202 L359.859289,204.586442 C361.524682,204.608162 363.190076,204.571961 364.855469,204.564721 L369.85165,204.521281 L379.844011,204.427161 L399.835942,204.224441 L419.820665,204 C423.151452,204.02172 426.482239,204.04344 429.813026,204.11584 L434.809206,204.202721 L439.805387,204.246161 L440.735412,204.253401 L440.742621,205.194603 L440.966115,229.463146 L441,229.437082 Z M438.681426,227.130412 L438.520654,205.164195 L439.839992,206.489118 C436.507763,206.474638 433.176255,206.532559 429.845468,206.452918 L419.851665,206.279158 L399.863339,206.308118 L379.875012,206.344318 L369.881209,206.358798 L364.885028,206.366038 C363.219635,206.373278 361.552799,206.358798 359.887406,206.394998 L361.115904,205.156955 L361.292537,216.712025 C361.322817,218.63787 361.366794,220.563715 361.361027,222.48956 C361.358143,224.415405 361.39347,226.34125 361.349492,228.267095 L359.887406,226.797372 C361.552799,226.826332 363.218193,226.826332 364.883586,226.891492 L369.881209,227.043532 L374.877389,227.188333 C376.542783,227.231773 378.209618,227.318653 379.875012,227.224533 C381.540405,227.123172 383.205799,227.188333 384.871192,227.224533 L389.868815,227.325893 L399.862618,227.485173 C401.528011,227.485173 403.193405,227.477933 404.858798,227.412773 L409.856421,227.267973 C411.521814,227.202813 413.187208,227.217293 414.852601,227.202813 L419.850223,227.173852 L429.844026,227.108692 C432.791268,227.079732 435.736347,227.101452 438.681426,227.101452 L438.681426,227.130412 Z" id="Shape"></path>
                    <path d="M405.208992,296.26561 L384.015679,296.442968 L374.000622,296.512901 L363.987009,296.508575 L353.973397,296.400431 L348.96659,296.349963 L346.4668,296.321124 L343.967009,296.220189 L341.467218,296.133673 L338.967428,296.119254 L333.960621,296.097625 L323.947009,296.054367 L323.000556,296.047157 L323.000556,295.102692 C322.993331,293.184923 323.058355,291.259944 323.087254,289.342174 L323.202851,283.581657 L323.318449,277.82114 C323.354573,275.90337 323.347348,273.978391 323.361798,272.060622 L323.369022,271.46222 L323.954234,271.46943 C325.623169,271.483849 327.292104,271.455011 328.96104,271.440591 L333.975071,271.397333 L343.988684,271.303608 L364.023133,271.094528 L384.057583,270.871028 C387.395454,270.892657 390.74055,270.914286 394.078421,270.986383 L399.085227,271.065689 L404.092033,271.101737 L405.024036,271.108947 L405.031261,272.046203 L405.248006,296.20577 L405.208992,296.26561 Z M402.885487,293.968613 L402.726541,272.099554 L404.048684,273.422527 C400.710813,273.406665 397.372943,273.464343 394.035072,273.38792 L384.021459,273.214888 L363.994234,273.245169 L343.967009,273.279054 L333.953396,273.293474 L328.94659,273.300683 C327.277655,273.307893 325.608719,273.293474 323.939784,273.329522 L325.17523,272.09667 L325.35585,283.603286 C325.391975,285.521055 325.435323,287.438825 325.428099,289.356594 C325.428099,291.274363 325.464223,293.192132 325.420874,295.109902 L323.954234,293.639131 C325.623169,293.66797 327.292104,293.66797 328.96104,293.732857 L333.967846,293.88426 L338.974652,294.028453 C340.643588,294.071711 342.312523,294.158227 343.981459,294.064501 C345.650394,293.963566 347.31933,294.035662 348.988265,294.064501 L353.995071,294.165436 L364.015909,294.324049 C365.684844,294.324049 367.353779,294.316839 369.022715,294.251952 L374.029521,294.107759 C375.698457,294.042872 377.367392,294.057291 379.036327,294.042872 L384.043134,294.014033 L394.056746,293.949147 C397.011701,293.920308 399.966656,293.934727 402.914386,293.941937 L402.885487,293.968613 Z M405.211882,250.802222 L384.021459,250.979579 L374.007847,251.044466 L363.994234,251.037257 L353.980622,250.936321 L348.973815,250.878644 L346.474025,250.849806 L343.974234,250.74887 L341.474443,250.655145 L338.974652,250.640725 L333.967846,250.619096 L323.954234,250.575839 L323.007781,250.568629 L323.007781,249.616954 C323.000556,247.699185 323.06558,245.781415 323.101704,243.863646 L323.217301,238.103129 L323.332898,232.349821 C323.376247,230.432052 323.361798,228.514282 323.376247,226.596513 L323.383472,225.998111 L323.968683,226.005321 C325.637619,226.02695 327.306554,225.990902 328.97549,225.976482 L333.982296,225.926015 L343.995908,225.832289 L364.030358,225.623209 L384.064808,225.39971 C387.402679,225.421339 390.74055,225.442968 394.078421,225.515064 L399.085227,225.60158 L404.092033,225.644838 L405.031261,225.652048 L405.038486,226.589303 L405.255231,250.75608 L405.211882,250.802222 Z M402.892712,248.505224 L402.733765,226.636166 L404.055909,227.959138 C400.718038,227.93751 397.380167,227.995187 394.042297,227.92309 L384.028684,227.750058 L364.001459,227.778897 L343.974234,227.814945 L333.960621,227.829365 L328.953815,227.836574 C327.28488,227.843784 325.615944,227.829365 323.947009,227.865413 L325.17523,226.632561 L325.35585,238.139177 C325.391975,240.056946 325.435323,241.974715 325.428099,243.892485 C325.428099,245.810254 325.464223,247.728023 325.420874,249.645793 L323.954234,248.175022 C325.623169,248.203861 327.292104,248.203861 328.96104,248.268748 L333.967846,248.42015 L338.981877,248.564344 C340.650813,248.607602 342.319748,248.694118 343.988684,248.600392 C345.657619,248.499457 347.326554,248.571553 348.99549,248.600392 L354.002296,248.701327 L364.015909,248.85994 C365.684844,248.85994 367.353779,248.85273 369.022715,248.787843 L374.036746,248.64365 C375.705681,248.578763 377.374617,248.593182 379.043552,248.578763 L384.050358,248.549924 L394.071196,248.485037 C397.026151,248.456199 399.981106,248.477828 402.928836,248.477828 L402.892712,248.505224 Z M405.219106,345.752709 L384.028684,345.930066 L374.015071,346 L364.001459,345.995674 L353.987846,345.887529 L348.98104,345.837062 L346.481249,345.808223 L343.981459,345.707288 L341.481668,345.620772 L338.981877,345.606353 L333.975071,345.584724 L323.961458,345.541466 L323.015006,345.534256 L323.015006,344.582581 C323.007781,342.664812 323.072805,340.739833 323.101704,338.822064 L323.217301,333.061546 L323.332898,327.301029 C323.376247,325.383259 323.361798,323.46549 323.376247,321.547721 L323.383472,320.949319 L323.968683,320.956529 C325.637619,320.970948 327.306554,320.942109 328.97549,320.92769 L333.982296,320.884432 L344.003133,320.790707 L364.030358,320.581627 L384.064808,320.358127 C387.402679,320.379756 390.747775,320.401385 394.085646,320.473482 L399.092452,320.552788 L404.099258,320.588836 L405.031261,320.596046 L405.038486,321.533302 L405.262455,345.692869 L405.219106,345.752709 Z M402.899936,343.455711 L402.74099,321.586653 L404.063134,322.909625 C400.725263,322.893764 397.387392,322.951441 394.049521,322.875019 L384.035909,322.701987 L364.008684,322.732268 L343.981459,322.766153 L333.967846,322.780573 L328.96104,322.787782 C327.292104,322.794992 325.623169,322.780573 323.954234,322.816621 L325.189679,321.583769 L325.3703,333.090385 C325.399199,335.008154 325.449773,336.925923 325.442548,338.843693 C325.442548,340.761462 325.478672,342.679231 325.435323,344.597 L323.968683,343.12623 C325.637619,343.155069 327.306554,343.155069 328.97549,343.219956 L333.982296,343.371358 L338.989102,343.515552 C340.658038,343.558809 342.326973,343.645325 343.995908,343.5516 C345.664844,343.450665 347.333779,343.522761 349.002715,343.5516 L354.009521,343.652535 L364.030358,343.811148 C365.699294,343.811148 367.368229,343.803938 369.037165,343.739051 L374.043971,343.594858 C375.712906,343.529971 377.381842,343.54439 379.050777,343.529971 L384.057583,343.501132 L394.078421,343.436245 C397.033376,343.407407 399.981106,343.421826 402.936061,343.429036 L402.899936,343.455711 Z M881.963153,87.38593 L860.769841,87.5640086 L850.754783,87.6339423 L840.739726,87.6296165 L830.724668,87.5272393 L825.717862,87.4767717 L823.213014,87.450096 L820.708888,87.3491607 L818.204763,87.2626448 L815.704972,87.2482255 L810.698166,87.2265965 L800.684553,87.1833386 L799.738101,87.1761289 L799.738101,86.2244539 C799.730876,84.3066847 799.795899,82.3889154 799.832024,80.4639365 L799.947621,74.703419 L800.063218,68.9501112 C800.106567,67.0323419 800.092117,65.1145727 800.113792,63.1895937 L800.121017,62.591192 L800.706228,62.5984017 C802.375163,62.612821 804.044099,62.5839824 805.713034,62.5695631 L810.71984,62.5190954 L820.740678,62.4253699 L840.767903,62.2234994 L860.802353,62 C864.140224,62.021629 867.478094,62.043258 870.815965,62.1153545 L875.822771,62.1946608 L880.829578,62.2379187 L881.768805,62.2451284 L881.77603,63.1823841 L882,87.3491607 L881.963153,87.38593 Z M879.640371,85.0896536 L879.479257,63.2205953 L880.801401,64.5435677 C877.462085,64.5277064 874.123492,64.5853837 870.785621,64.5089613 L860.764784,64.3359295 L840.730334,64.3647681 L820.695884,64.3936068 L810.682271,64.4080261 L805.675465,64.4152357 C804.00653,64.4224454 802.337594,64.4080261 800.668659,64.4440744 L801.89688,63.2112227 L802.070275,74.7178383 C802.099175,76.6356076 802.142524,78.5533769 802.135299,80.4711461 C802.128074,82.3889154 802.164198,84.3066847 802.120849,86.2244539 L800.654209,84.7536835 C802.323144,84.7825222 803.99208,84.7825222 805.661015,84.8474091 L810.667822,84.9988119 L815.674628,85.1430051 C817.343563,85.1862631 819.012499,85.272779 820.681434,85.1790534 C822.35037,85.0781182 824.019305,85.1502148 825.68824,85.1790534 L830.695047,85.2799886 L840.708659,85.4386011 C842.377595,85.4386011 844.04653,85.4313915 845.715465,85.3665045 L850.722272,85.2223114 C852.391207,85.1574244 854.060143,85.1718437 855.729078,85.1574244 L860.735884,85.1285858 L870.749497,85.0636989 C873.697227,85.0348602 876.652182,85.0564892 879.599912,85.0564892 L879.640371,85.0896536 Z" id="Shape"></path>
                    <path d="M844.326675,63.4818505 L823.104307,63.6599187 L813.075177,63.7301326 L803.046047,63.7257895 L793.016918,63.6172113 L788.003076,63.5665415 L785.499773,63.5375873 L782.99647,63.4362477 L780.493167,63.3493851 L777.989864,63.334908 L772.976022,63.3131924 L762.948339,63.2697611 L762.000557,63.2625226 L762.000557,62.3142732 C761.993322,60.3888202 762.058437,58.4633671 762.087377,56.5306756 L762.203136,50.7543166 L762.318896,44.970719 C762.362306,43.045266 762.347836,41.119813 762.369541,39.19436 L762.376776,38.5935607 L762.962809,38.6007992 C764.63409,38.6152763 766.30537,38.5863222 767.976651,38.5718451 L772.990492,38.5211753 L783.02541,38.4270742 L803.080775,38.2243949 L823.143376,38 C826.485937,38.0217156 829.828498,38.0434313 833.171059,38.1158167 L838.1849,38.1954407 L843.198741,38.2316334 L844.139289,38.238872 L844.153759,39.1798829 L844.370808,63.4434862 L844.326675,63.4818505 Z M842.000629,61.17565 L841.839289,39.218971 L843.16329,40.547244 C839.819282,40.5313192 836.475998,40.5892276 833.133437,40.512499 L823.098519,40.3387739 L803.035918,40.3691758 L782.973318,40.403197 L772.945635,40.4176741 L767.931794,40.4249126 C766.260513,40.4321512 764.589233,40.4176741 762.917953,40.4538668 L764.147899,39.2160756 L764.321539,50.7687936 C764.350479,52.6942467 764.393889,54.6196997 764.386654,56.5451527 C764.379419,58.4706057 764.415593,60.3960587 764.372184,62.3215117 L762.903483,60.8448485 C764.574763,60.8738027 766.246043,60.8738027 767.917324,60.9389496 L772.931165,61.090959 L777.945007,61.2357299 C779.616287,61.2791612 781.287568,61.3660238 782.958848,61.2646841 C784.630129,61.170583 786.301409,61.2357299 787.972689,61.2646841 L792.986531,61.3660238 L803.014214,61.5252717 C804.685494,61.5252717 806.356774,61.5180332 808.028055,61.4528863 L813.041896,61.3081154 C814.713177,61.2429685 816.384457,61.2574456 818.055738,61.2429685 L823.069579,61.2140143 L833.097262,61.1561059 C836.049134,61.1271518 839.008241,61.1488674 841.960113,61.1488674 L842.000629,61.17565 Z M844.326675,113.167224 L823.104307,113.345293 L813.075177,113.415507 L803.046047,113.411163 L793.016918,113.302585 L788.003076,113.251915 L785.499773,113.222961 L782.99647,113.121622 L780.493167,113.034759 L777.989864,113.020282 L772.976022,112.998566 L762.948339,112.955135 L762.000557,112.947897 L762.000557,111.999647 C761.993322,110.074194 762.058437,108.148741 762.087377,106.21605 L762.203136,100.43969 L762.318896,94.6560929 C762.362306,92.7306399 762.347836,90.8051869 762.369541,88.8797339 L762.376776,88.2789346 L762.962809,88.2861732 C764.63409,88.3006503 766.30537,88.2716961 767.976651,88.257219 L772.990492,88.2065492 L783.02541,88.1124481 L803.080775,87.9097688 L823.143376,87.6853739 C826.485937,87.7070896 829.828498,87.7288052 833.171059,87.8011907 L838.1849,87.8808146 L843.198741,87.9170074 L844.139289,87.9242459 L844.153759,88.8652568 L844.370808,113.12886 L844.326675,113.167224 Z M842.000629,110.861024 L841.839289,88.9043449 L843.16329,90.232618 C839.819282,90.2166932 836.475998,90.2746015 833.133437,90.197873 L823.098519,90.0241479 L803.035918,90.0545498 L782.973318,90.0885709 L772.945635,90.103048 L767.931794,90.1102866 C766.260513,90.1175251 764.589233,90.103048 762.917953,90.1392407 L764.147899,88.9014495 L764.321539,100.454168 C764.350479,102.379621 764.393889,104.305074 764.386654,106.230527 C764.379419,108.15598 764.415593,110.081433 764.372184,112.006886 L762.903483,110.530222 C764.574763,110.559177 766.246043,110.559177 767.917324,110.624324 L772.931165,110.776333 L777.945007,110.921104 C779.616287,110.964535 781.287568,111.051398 782.958848,110.950058 C784.630129,110.855957 786.301409,110.921104 787.972689,110.950058 L792.986531,111.051398 L803.014214,111.210646 C804.685494,111.210646 806.356774,111.203407 808.028055,111.13826 L813.041896,110.993489 C814.713177,110.928342 816.384457,110.94282 818.055738,110.928342 L823.069579,110.899388 L833.097262,110.84148 C836.049134,110.812526 839.008241,110.834241 841.960113,110.834241 L842.000629,110.861024 Z M847,398.750994 L825.777632,398.929062 L815.748502,399 L805.719373,398.995657 L795.690243,398.89287 L790.676402,398.8422 L788.168034,398.815417 L785.657496,398.719144 L783.146958,398.630834 L780.636419,398.619976 L775.622578,398.598261 L765.58766,398.557001 L764.639878,398.553382 L764.632643,397.605132 C764.625408,395.679679 764.690523,393.754226 764.719463,391.828773 L764.827987,386.052414 L764.936512,380.276055 C764.972687,378.350602 764.965452,376.425149 764.979922,374.499696 L764.987157,373.898897 L765.565955,373.906136 C767.237236,373.927851 768.908516,373.891658 770.579797,373.88442 L775.593638,373.840989 L785.621321,373.746888 L805.676686,373.544208 L825.732052,373.319813 C829.074613,373.341529 832.417174,373.363245 835.759735,373.43563 L840.773576,373.522493 L845.787417,373.565924 L846.72073,373.573162 L846.727965,374.514173 L846.945014,398.777777 L847,398.750994 Z M844.673954,396.444794 L844.512614,374.488115 L845.836615,375.816388 C842.492607,375.800463 839.149323,375.858371 835.806762,375.781643 L825.777632,375.607917 L805.718649,375.638319 L785.659666,375.672341 L775.630536,375.694056 L770.616695,375.701295 C768.945415,375.708533 767.272687,375.694056 765.601407,375.730249 L766.834247,374.492458 L767.011504,386.052414 C767.041891,387.977867 767.086025,389.910559 767.080237,391.836012 C767.077343,393.761465 767.112794,395.686918 767.068661,397.619609 L765.601407,396.150185 C767.272687,396.186377 768.943968,396.186377 770.615248,396.251524 L775.630536,396.403534 L780.644378,396.555543 C782.315658,396.606213 783.988386,396.693076 785.659666,396.591736 C787.330947,396.497635 789.002227,396.562782 790.673508,396.591736 L795.688796,396.693076 L805.717926,396.852324 C807.389206,396.859562 809.060487,396.845085 810.731767,396.779938 L815.747055,396.635167 C817.418336,396.577259 819.089616,396.584497 820.760897,396.57002 L825.776185,396.541066 L835.805315,396.483158 C838.762975,396.454204 841.718464,396.475919 844.673954,396.475919 L844.673954,396.444794 Z" id="Shape"></path>
                    <path d="M809.960986,422.361533 L788.767961,422.539362 L778.753039,422.61165 L768.739562,422.61165 L758.726085,422.510447 L753.719347,422.459845 L751.21959,422.438159 L748.719833,422.344184 L746.220076,422.257439 L743.72032,422.25021 L738.713581,422.228523 L728.700104,422.192379 L727.753665,422.192379 L727.753665,421.245406 C727.74644,419.322545 727.811462,417.399683 727.840361,415.476821 L727.955957,409.708236 L728.071553,403.939651 C728.107676,402.016789 728.100452,400.093928 728.114901,398.171066 L728.122126,397.578304 L728.707329,397.585533 C730.376242,397.607219 732.045155,397.571075 733.714067,397.563847 L738.728031,397.520474 L748.741508,397.426499 L768.775686,397.224093 L788.809865,397 C792.14769,397.021686 795.492741,397.043373 798.830566,397.115661 L803.837305,397.202406 L808.844043,397.245779 L809.776033,397.253008 L809.783258,398.192753 L810,422.423701 L809.960986,422.361533 Z M807.637513,420.058437 L807.478569,398.126248 L808.800695,399.449119 C805.462869,399.434661 802.125043,399.492491 798.787218,399.412975 L788.773741,399.239483 L768.746787,399.268398 L748.719833,399.304542 L738.706356,399.319 L733.699618,399.326229 C732.030705,399.333458 730.361792,399.319 728.69288,399.355144 L729.928309,398.119019 L730.108927,409.656189 C730.14505,411.57905 730.188399,413.501912 730.181174,415.424774 C730.181174,417.347635 730.217298,419.270497 730.173949,421.193359 L728.707329,419.718683 C730.376242,419.747598 732.045155,419.747598 733.714067,419.812657 L738.720806,419.964462 L743.727544,420.109038 C745.396457,420.152411 747.06537,420.239157 748.734283,420.145182 C750.403196,420.043979 752.072108,420.109038 753.741021,420.145182 L758.74776,420.246386 L768.768461,420.405419 C770.437374,420.405419 772.106287,420.39819 773.7752,420.333131 L778.781938,420.188555 C780.450851,420.123496 782.119764,420.137954 783.788677,420.123496 L788.795415,420.094581 L798.808892,420.029521 C801.763807,420.000606 804.718722,420.015064 807.666412,420.022293 L807.637513,420.058437 Z M292.203543,458.754221 L271.013408,458.927712 L260.999931,459 L250.986454,458.992771 L240.972977,458.891568 L235.966239,458.840966 L233.466482,458.812051 L230.966725,458.710848 L228.466968,458.624102 L225.967211,458.609645 L220.960473,458.587958 L210.946996,458.544585 L210.000556,458.537357 L210.000556,457.590383 C209.993331,455.667522 210.058354,453.74466 210.087253,451.821798 L210.202849,446.045985 L210.318444,440.270171 C210.361793,438.347309 210.347343,436.424447 210.369017,434.501586 L210.376242,433.901595 L210.961445,433.908824 C212.630358,433.93051 214.299271,433.894366 215.968184,433.887137 L220.974922,433.836536 L230.995624,433.742561 L251.022578,433.532926 L271.049532,433.308833 C274.387357,433.323291 277.725183,433.352206 281.063008,433.424494 L286.069747,433.504011 L291.076485,433.540155 L292.0157,433.547384 L292.022925,434.487128 L292.246892,458.710848 L292.203543,458.754221 Z M289.884405,456.455461 L289.725461,434.523272 L291.047586,435.846143 C287.709761,435.831685 284.371935,435.889516 281.034109,435.809999 L271.020633,435.636508 L250.993679,435.665423 L230.966725,435.694338 L220.953248,435.716025 L215.94651,435.723253 C214.277597,435.730482 212.608684,435.716025 210.939771,435.752169 L212.167975,434.516043 L212.348594,446.053213 C212.377493,447.976075 212.428066,449.898937 212.420841,451.821798 C212.420841,453.74466 212.456965,455.667522 212.413616,457.590383 L210.946996,456.115707 C212.615909,456.144623 214.284822,456.144623 215.953734,456.209682 L220.960473,456.361487 L225.967211,456.506063 C227.636124,456.549436 229.305037,456.636181 230.97395,456.542207 C232.642863,456.441004 234.311775,456.513292 235.980688,456.542207 L240.987427,456.64341 L251.000904,456.802444 C252.669816,456.802444 254.338729,456.795215 256.007642,456.730156 L261.01438,456.58558 C262.683293,456.52052 264.359431,456.534978 266.028344,456.52052 L271.035082,456.491605 L281.048559,456.426546 C284.003474,456.397631 286.951164,456.412088 289.906079,456.419317 L289.884405,456.455461 Z" id="Shape"></path>
                    <path d="M253.956065,482.759446 L232.829234,482.931773 L222.845252,483 L212.861271,482.99578 L202.877289,482.895901 L197.886018,482.846665 L195.393984,482.82064 L192.90195,482.727091 L190.409916,482.64128 L187.917882,482.630729 L182.926611,482.609628 L172.94407,482.569535 L172.000555,482.566019 L172.000555,481.642489 C171.993352,479.771516 172.058174,477.899136 172.086983,476.02746 L172.202222,470.407506 L172.317461,464.787553 C172.360675,462.91658 172.34627,461.045607 172.367877,459.1676 L172.37508,458.5838 L172.958475,458.590834 C174.622232,458.611935 176.285989,458.576766 177.949746,458.562699 L182.941016,458.513463 L192.93076,458.422024 L212.895842,458.218046 L232.868127,458 C236.195641,458.014067 239.523155,458.042202 242.850668,458.11254 L247.841939,458.189911 L252.833209,458.225079 L253.769523,458.232113 L253.783928,459.146499 L254,482.723574 L253.956065,482.759446 Z M251.641211,480.518499 L251.480597,459.183074 L252.798638,460.477281 C249.469684,460.463214 246.14145,460.519483 242.813936,460.442112 L232.829954,460.273303 L212.861271,460.301438 L192.892587,460.336606 L182.908605,460.357708 L177.917335,460.371775 C176.253578,460.378809 174.588381,460.364741 172.924624,460.39991 L174.151915,459.197141 L174.328374,470.430014 C174.358624,472.300988 174.402558,474.171961 174.396797,476.049968 C174.393916,477.920941 174.429207,479.798948 174.385273,481.669921 L172.924624,480.242073 C174.588381,480.277242 176.252138,480.277242 177.915894,480.340545 L182.908605,480.488254 L187.899876,480.628928 C189.563633,480.678164 191.22883,480.755536 192.892587,480.664097 C194.556344,480.572658 196.220101,480.635962 197.883858,480.664097 L202.876569,480.762569 L212.86055,480.917311 C214.524307,480.924345 216.188064,480.910278 217.851821,480.846974 L222.844532,480.706299 C224.508289,480.65003 226.172046,480.657063 227.835803,480.642996 L232.828514,480.614861 L242.812496,480.558591 C245.756121,480.530456 248.698306,480.551557 251.641211,480.551557 L251.641211,480.518499 Z" id="Shape"></path>
                    <path d="M335.963271,482.759446 L314.837575,482.931773 L304.85447,483 L294.871365,482.99578 L284.88826,482.895901 L279.897428,482.846665 L277.400571,482.82064 L274.904435,482.727091 L272.408299,482.64128 L269.916483,482.630729 L264.925651,482.609628 L254.943986,482.569535 L254.000553,482.566019 L254.000553,481.642489 C253.993352,479.771516 254.058168,477.899136 254.094177,476.02746 L254.209405,470.407506 L254.324633,464.787553 C254.367844,462.91658 254.353441,461.045607 254.375046,459.1676 L254.382248,458.5838 L254.965592,458.590834 C256.629202,458.611935 258.292813,458.576766 259.956424,458.562699 L264.947256,458.513463 L274.936123,458.422024 L294.899452,458.218046 L314.869983,458 C318.197204,458.014067 321.524426,458.042202 324.851647,458.11254 L329.84248,458.189911 L334.833312,458.232113 L335.769543,458.239147 L335.776745,459.153532 L336,482.730608 L335.963271,482.759446 Z M333.647179,480.518499 L333.486579,459.183074 L334.804505,460.477281 C331.477283,460.463214 328.150062,460.519483 324.82284,460.442112 L314.841176,460.273303 L294.877846,460.301438 L274.914517,460.336606 L264.932853,460.357708 L259.94202,460.371775 C258.27841,460.378809 256.614799,460.364741 254.951188,460.39991 L256.182692,459.197141 L256.362737,470.430014 C256.398746,472.300988 256.441956,474.171961 256.434754,476.049968 C256.434754,477.920941 256.470763,479.798948 256.420351,481.669921 L254.965592,480.242073 C256.629202,480.277242 258.292813,480.277242 259.956424,480.340545 L264.947256,480.488254 L269.938089,480.628928 C271.601699,480.678164 273.26531,480.755536 274.928921,480.664097 C276.592532,480.572658 278.256142,480.635962 279.919753,480.664097 L284.910585,480.762569 L294.89225,480.917311 C296.555861,480.924345 298.219472,480.910278 299.883082,480.846974 L304.873915,480.706299 C306.537525,480.65003 308.201136,480.657063 309.864747,480.642996 L314.862781,480.614861 L324.844446,480.558591 C327.789973,480.530456 330.728298,480.551557 333.673826,480.551557 L333.647179,480.518499 Z" id="Shape"></path>
                </g>
                <g id="designer" transform="translate(500.000000, 210.000000)">
                    <path d="M175.394878,136.00026 L169.736706,136.00026 L169.736706,130.333388 C169.736706,127.205545 167.202095,124.666515 164.078535,124.666515 L16.9712708,124.666515 C13.8591465,124.666515 11.3130992,127.205024 11.3130992,130.333388 L11.3130992,243.666678 C11.3130992,259.284027 24.0095477,272 39.6029177,272 L141.446368,272 C157.051174,272 169.736187,259.284027 169.736187,243.666678 L169.736187,215.333355 L175.394358,215.333355 C197.245245,215.333355 215,197.551297 215,175.666808 C215.00052,153.793252 197.245765,136.00026 175.394878,136.00026 Z M175.394878,204.00013 L169.736706,204.00013 L169.736706,147.333485 L175.394878,147.333485 C190.999684,147.333485 203.684696,160.049458 203.684696,175.666808 C203.684696,191.284157 190.999684,204.00013 175.394878,204.00013 Z" id="Shape" fill="#3E4166" fill-rule="nonzero"></path>
                    <path d="M130.131064,113.33329 L152.762711,113.33329 C154.912661,113.33329 156.893151,112.109329 157.84337,110.160154 L175.077792,74.9812905 C186.473147,73.3491686 195.039156,63.1831582 196.781571,48.51801 C198.98818,29.9310839 189.697551,7.10584714 164.055663,0.895454398 C161.780958,0.35141379 159.438678,1.24686819 158.103277,3.12836365 C156.767875,5.03224547 156.734088,7.5483682 158.001393,9.50899684 C163.964696,18.6436729 160.366545,24.0382651 153.995709,32.0963134 C151.562981,35.1674096 149.254489,38.091693 147.873864,41.3897765 C145.214497,47.679823 145.078826,54.3212833 147.477766,60.0443823 C148.530389,62.560505 150.125697,64.8158006 152.049527,66.8331761 L129.689223,98.4531286 L128.27481,100.481958 L125.502644,104.403215 C124.291998,106.137377 124.122019,108.404126 125.106546,110.273647 C126.091073,112.143169 128.014903,113.33329 130.131064,113.33329 Z" id="Path" fill="#3E4166"></path>
                    <path d="M28.2876141,113.33329 L62.3598396,113.33329 C65.3809965,113.33329 67.7913725,110.942114 67.9499156,107.950151 C68.1084588,110.942114 70.5188347,113.33329 73.5514275,113.33329 L118.815241,113.33329 C121.938281,113.33329 124.473413,110.805714 124.473413,107.666417 L124.473413,101.999544 L110.328244,101.999544 C107.216119,101.999544 104.670072,99.4719682 104.670072,96.3326717 C104.670072,93.2048287 107.216119,90.665799 110.328244,90.665799 L124.473413,90.665799 L124.473413,79.3325741 L96.1835942,79.3325741 C93.0714699,79.3325741 90.5254226,76.8049979 90.5254226,73.6657014 C90.5254226,70.5378583 93.0714699,67.9988286 96.1835942,67.9988286 L124.473413,67.9988286 L124.473413,56.6656037 L110.328244,56.6656037 C107.216119,56.6656037 104.670072,54.1380275 104.670072,50.998731 C104.670072,47.870888 107.216119,45.3318583 110.328244,45.3318583 L124.473413,45.3318583 L124.473413,34.0001952 L96.1835942,34.0001952 C93.0714699,34.0001952 90.5254226,31.472619 90.5254226,28.3333225 C90.5254226,25.2054795 93.0714699,22.6664497 96.1835942,22.6664497 L124.473413,22.6664497 L124.473413,5.66687274 C124.472893,2.53850909 121.938281,0 118.815241,0 L73.5514275,0 C70.4393032,0 67.8932559,2.53850909 67.8932559,5.66687274 L67.8932559,107.122897 C67.7575846,105.763056 67.2143793,104.504734 66.275076,103.598347 L41.1878295,68.3970976 L10.8047215,93.7499105 L23.7730325,111.067061 C24.8246155,112.494582 26.510891,113.33329 28.2876141,113.33329 Z" id="Path" fill="#3E4166"></path>
                    <path d="M8.57524069,46.1492207 C6.68571806,45.0043927 4.30913004,45.072593 2.47574728,46.3080077 C0.65380043,47.5658087 -0.285502842,49.7534247 0.0768072744,51.9295871 L5.34979697,83.5724466 L32.7569718,60.667556 C32.7574917,60.667556 8.57524069,46.1492207 8.57524069,46.1492207 Z" id="Path" fill="#8C9CD5"></path>
                    <path d="M158.296128,45.786874 C159.088324,43.8944457 160.921187,41.5824033 162.867889,39.1454137 C167.167787,33.7055283 173.006854,26.3044935 172.361765,16.6825237 C182.97636,23.9357043 186.812065,36.493411 185.544759,47.1691016 C184.616892,54.9210295 180.486453,63.9651189 171.87522,63.9651189 L171.863784,63.9651189 L162.211364,60.7576221 C160.230874,59.3748739 158.737449,57.6636189 157.90003,55.6576969 C156.689384,52.7115478 156.802703,49.3114242 158.296128,45.786874 Z" id="Path" fill="#8C9CD5"></path>
                </g>
            </g>
        </g>
    </g>
</svg>